<?xml version="1.0" standalone="no"?><!DOCTYPE svg PUBLIC "-//W3C//DTD SVG 1.1//EN" "http://www.w3.org/Graphics/SVG/1.1/DTD/svg11.dtd"><svg t="1730540672401" class="icon" viewBox="0 0 1024 1024" version="1.1" xmlns="http://www.w3.org/2000/svg" p-id="3284" xmlns:xlink="http://www.w3.org/1999/xlink" width="200" height="200"><path d="M271.36 228.48a41.6 41.6 0 1 0-64 55.04L408.64 512l-200 228.48A41.92 41.92 0 0 0 212.48 800a43.2 43.2 0 0 0 27.52 10.24 42.24 42.24 0 0 0 32-14.08l224-256a41.92 41.92 0 0 0 0-55.04zM815.36 484.48l-224-256a41.6 41.6 0 0 0-64 55.04L728.64 512l-200 228.48a41.92 41.92 0 0 0 3.84 59.52 43.2 43.2 0 0 0 27.52 10.24 42.24 42.24 0 0 0 32-14.08l224-256a41.92 41.92 0 0 0-0.64-55.68z" p-id="3285"></path></svg>