<?xml version="1.0" standalone="no"?><!DOCTYPE svg PUBLIC "-//W3C//DTD SVG 1.1//EN" "http://www.w3.org/Graphics/SVG/1.1/DTD/svg11.dtd"><svg t="1730581526200" class="icon" viewBox="0 0 1024 1024" version="1.1" xmlns="http://www.w3.org/2000/svg" p-id="9397" xmlns:xlink="http://www.w3.org/1999/xlink" width="200" height="200"><path d="M0 0h1023.945v1023.945H0z" fill="#515151" fill-opacity="0.37" p-id="9398"></path><path d="M258.816 382.875c0-136.832 110.532-248.145 246.42-248.145s246.42 111.313 246.42 248.145c0 136.845-110.532 248.145-246.42 248.145s-246.42-111.3-246.42-248.145zM53.892 1023.366c5.308-60.009 33.911-272.612 253.763-386.485 54.525 43.1 123.035 69.048 197.581 69.048 74.937 0 143.824-26.204 198.484-69.763 220.822 113.402 247.485 324.524 252.86 387.186-1.32 1.28-901.381 0.108-902.688 0.014z" fill="#515151" fill-opacity="0.68" p-id="9399"></path></svg>