<?xml version="1.0" standalone="no"?><!DOCTYPE svg PUBLIC "-//W3C//DTD SVG 1.1//EN" "http://www.w3.org/Graphics/SVG/1.1/DTD/svg11.dtd"><svg t="1730768633312" class="icon" viewBox="0 0 1024 1024" version="1.1" xmlns="http://www.w3.org/2000/svg" p-id="13318" xmlns:xlink="http://www.w3.org/1999/xlink" width="200" height="200"><path d="M898 267.94H708.88c-36.01 0-68.5-19.95-84.8-52.05l-33.71-66.41H433.84l-33.71 66.41c-16.3 32.11-48.79 52.06-84.8 52.06H128c-16.57 0-30-13.43-30-30s13.43-30 30-30h187.32c13.29 0 25.28-7.36 31.3-19.21l36.31-71.54c8.68-17.09 25.98-27.72 45.15-27.72h168.03c19.17 0 36.47 10.62 45.15 27.72l36.31 71.54c6.02 11.85 18.01 19.21 31.3 19.21h189.12c16.57 0 30 13.43 30 30s-13.43 30-30 30zM722.48 925.64H301.52c-68.2 0-123.69-55.49-123.69-123.69V363.3c0-16.57 13.43-30 30-30s30 13.43 30 30v438.65c0 35.12 28.57 63.69 63.69 63.69h420.95c35.12 0 63.69-28.57 63.69-63.69V363.3c0-16.57 13.43-30 30-30s30 13.43 30 30v438.65c0 68.2-55.49 123.69-123.69 123.69z" p-id="13319" fill="#ffffff"></path><path d="M404.13 747.94c-16.57 0-30-13.43-30-30V383.79c0-16.57 13.43-30 30-30s30 13.43 30 30v334.15c0 16.57-13.43 30-30 30zM619.87 747.94c-16.57 0-30-13.43-30-30V383.79c0-16.57 13.43-30 30-30s30 13.43 30 30v334.15c0 16.57-13.43 30-30 30z" p-id="13320" fill="#ffffff"></path></svg>