<?xml version="1.0" standalone="no"?><!DOCTYPE svg PUBLIC "-//W3C//DTD SVG 1.1//EN" "http://www.w3.org/Graphics/SVG/1.1/DTD/svg11.dtd"><svg t="1730616884543" class="icon" viewBox="0 0 1024 1024" version="1.1" xmlns="http://www.w3.org/2000/svg" p-id="10760" xmlns:xlink="http://www.w3.org/1999/xlink" width="200" height="200"><path d="M935.082667 480a401.194667 401.194667 0 0 0-1.194667-10.666667h-0.170667c0.426667 3.541333 1.109333 7.04 1.365334 10.666667zM931.285333 450.474667l0 0zM933.717333 469.333333h0.170667a502.613333 502.613333 0 0 0-2.56-18.858666c0.853333 6.272 1.578667 12.586667 2.389333 18.858666zM810.666667 297.088c0-11.093333-10.453333-19.669333-16.042667-22.016l-136.832-131.882667C655.402667 137.813333 646.016 128 634.453333 128H597.333333v213.333333h213.333334V297.088z" fill="" p-id="10761"></path><path d="M554.666667 128H261.12C233.685333 128 213.333333 150.826667 213.333333 177.28v670.805333C213.333333 874.538667 233.642667 896 261.12 896h497.792c27.477333 0 51.754667-21.461333 51.754667-47.914667V384h-256V128z m149.546666 640H318.72C307.626667 768 298.666667 757.674667 298.666667 746.666667s8.96-21.333333 20.010666-21.333334h385.536c11.008 0 20.010667 10.325333 20.010667 21.333334s-9.002667 21.333333-20.010667 21.333333z m0-213.333333c11.008 0 20.010667 10.325333 20.010667 21.333333s-9.002667 21.333333-20.010667 21.333333H318.72C307.626667 597.333333 298.666667 587.008 298.666667 576s8.96-21.333333 20.010666-21.333333h385.536z" fill="" p-id="10762"></path></svg>