<?xml version="1.0" standalone="no"?><!DOCTYPE svg PUBLIC "-//W3C//DTD SVG 1.1//EN" "http://www.w3.org/Graphics/SVG/1.1/DTD/svg11.dtd"><svg t="1730971644244" class="icon" viewBox="0 0 1042 1024" version="1.1" xmlns="http://www.w3.org/2000/svg" p-id="3631" xmlns:xlink="http://www.w3.org/1999/xlink" width="203.515625" height="200"><path d="M539.428571 201.142857c100.882286 0 191.451429 44.16 253.44 114.194286 126.08-2.395429 210.194286 22.948571 227.108572 86.089143 18.56 69.248-26.843429 124.032-142.756572 183.460571-0.914286 0.457143-1.810286 0.877714-2.742857 1.261714C851.785143 750.866286 710.4 877.714286 539.428571 877.714286c-105.618286 0-199.917714-48.402286-261.961142-124.233143-1.828571 0.365714-3.712 0.621714-5.668572 0.713143-134.345143 6.016-214.436571-18.102857-232.448-85.357715-17.188571-64.164571 45.257143-129.261714 159.122286-191.104 2.889143-1.572571 5.888-2.688 8.923428-3.401142C237.732571 318.665143 374.857143 201.142857 539.428571 201.142857z m0 69.394286c-148.498286 0-268.891429 120.393143-268.891428 268.891428S390.930286 808.32 539.428571 808.32 808.32 687.926857 808.32 539.428571 687.926857 270.537143 539.428571 270.537143zM201.654857 558.08l-6.802286 4.205714c-27.776 17.462857-49.865143 34.633143-65.188571 50.596572-17.554286 18.285714-23.186286 31.341714-21.522286 37.504 5.12 19.108571 45.44 33.389714 125.257143 33.408a336.64 336.64 0 0 1-31.744-125.714286z m518.363429 44.763429l0.822857 2.669714a35.657143 35.657143 0 0 1-25.197714 43.648l-34.358858 9.216a35.620571 35.620571 0 0 1-42.788571-22.509714l-0.841143-2.688a35.657143 35.657143 0 0 1 25.197714-43.648l34.377143-9.197715a35.620571 35.620571 0 0 1 42.788572 22.509715z m121.673143-215.515429l1.645714 3.309714a336.073143 336.073143 0 0 1 32.603428 113.974857c63.890286-36.443429 81.462857-61.568 75.245715-84.772571-1.645714-6.162286-13.001143-14.628571-37.266286-21.686857-19.163429-5.577143-43.574857-9.234286-72.228571-10.825143z" fill="#707070" p-id="3632"></path></svg>