<?xml version="1.0" standalone="no"?><!DOCTYPE svg PUBLIC "-//W3C//DTD SVG 1.1//EN" "http://www.w3.org/Graphics/SVG/1.1/DTD/svg11.dtd"><svg t="1730551322349" class="icon" viewBox="0 0 1024 1024" version="1.1" xmlns="http://www.w3.org/2000/svg" p-id="3591" xmlns:xlink="http://www.w3.org/1999/xlink" width="200" height="200"><path d="M335.36 86.4h-128A138.56 138.56 0 0 0 70.4 224v128a138.56 138.56 0 0 0 138.24 137.6h128A138.56 138.56 0 0 0 473.6 352V224a138.56 138.56 0 0 0-138.24-137.6zM390.4 352a55.04 55.04 0 0 1-55.04 55.04h-128A55.04 55.04 0 0 1 153.6 352V224a55.04 55.04 0 0 1 55.04-54.4h128A55.04 55.04 0 0 1 390.4 224zM815.36 86.4h-128A138.56 138.56 0 0 0 550.4 224v128a138.56 138.56 0 0 0 138.24 138.24h128A138.56 138.56 0 0 0 953.6 352V224a138.56 138.56 0 0 0-138.24-137.6zM870.4 352a55.04 55.04 0 0 1-55.04 55.04h-128A55.04 55.04 0 0 1 633.6 352V224a55.04 55.04 0 0 1 55.04-54.4h128A55.04 55.04 0 0 1 870.4 224zM335.36 534.4h-128A138.56 138.56 0 0 0 70.4 672v128a138.56 138.56 0 0 0 138.24 137.6h128A138.56 138.56 0 0 0 473.6 800v-128a138.56 138.56 0 0 0-138.24-137.6zM390.4 800a55.04 55.04 0 0 1-55.04 55.04h-128A55.04 55.04 0 0 1 153.6 800v-128a55.04 55.04 0 0 1 55.04-54.4h128A55.04 55.04 0 0 1 390.4 672zM815.36 534.4h-128A138.56 138.56 0 0 0 550.4 672v128a138.56 138.56 0 0 0 138.24 138.24h128A138.56 138.56 0 0 0 953.6 800v-128a138.56 138.56 0 0 0-138.24-137.6zM870.4 800a55.04 55.04 0 0 1-55.04 55.04h-128A55.04 55.04 0 0 1 633.6 800v-128a55.04 55.04 0 0 1 55.04-55.04h128A55.04 55.04 0 0 1 870.4 672z" p-id="3592"></path></svg>