<?xml version="1.0" standalone="no"?><!DOCTYPE svg PUBLIC "-//W3C//DTD SVG 1.1//EN" "http://www.w3.org/Graphics/SVG/1.1/DTD/svg11.dtd"><svg t="1730539609649" class="icon" viewBox="0 0 1024 1024" version="1.1" xmlns="http://www.w3.org/2000/svg" p-id="2973" xmlns:xlink="http://www.w3.org/1999/xlink" width="200" height="200"><path d="M939.84 299.2L535.04 29.44a41.6 41.6 0 0 0-46.08 0L84.16 299.2A102.4 102.4 0 0 0 38.4 384v440.32a177.6 177.6 0 0 0 177.28 177.28h592.64a177.6 177.6 0 0 0 177.28-177.28V384a102.4 102.4 0 0 0-45.76-84.8zM902.4 824.32a94.08 94.08 0 0 1-94.08 94.08H215.68a94.08 94.08 0 0 1-94.08-94.08V384a20.16 20.16 0 0 1 8.64-16.32L512 113.92l381.76 256a20.16 20.16 0 0 1 8.64 16.32z" p-id="2974"></path><path d="M608 662.4h-192a41.6 41.6 0 0 0 0 83.2h192a41.6 41.6 0 0 0 0-83.2z" p-id="2975"></path></svg>