<?xml version="1.0" standalone="no"?><!DOCTYPE svg PUBLIC "-//W3C//DTD SVG 1.1//EN" "http://www.w3.org/Graphics/SVG/1.1/DTD/svg11.dtd"><svg t="1730619666177" class="icon" viewBox="0 0 1024 1024" version="1.1" xmlns="http://www.w3.org/2000/svg" p-id="4768" xmlns:xlink="http://www.w3.org/1999/xlink" width="200" height="200"><path d="M709.12 500.8a41.92 41.92 0 0 0-12.48-29.76l-147.52-144a41.6 41.6 0 0 0-58.24 59.52l74.56 72.64H128A41.6 41.6 0 0 0 128 544h437.44l-74.56 72.64a41.92 41.92 0 0 0 0 58.88 41.6 41.6 0 0 0 58.88 0l147.52-144a41.28 41.28 0 0 0 11.84-30.72z" p-id="4769" fill="#707070"></path><path d="M843.84 86.4H624a41.6 41.6 0 0 0 0 83.2h219.84a10.56 10.56 0 0 1 10.56 10.56v663.68a10.56 10.56 0 0 1-10.56 10.56H624a41.6 41.6 0 0 0 0 83.2h219.84a94.08 94.08 0 0 0 93.76-93.76V180.16a94.08 94.08 0 0 0-93.76-93.76z" p-id="4770" fill="#707070"></path></svg>