<?xml version="1.0" standalone="no"?><!DOCTYPE svg PUBLIC "-//W3C//DTD SVG 1.1//EN" "http://www.w3.org/Graphics/SVG/1.1/DTD/svg11.dtd"><svg t="1730767773138" class="icon" viewBox="0 0 1024 1024" version="1.1" xmlns="http://www.w3.org/2000/svg" p-id="11127" xmlns:xlink="http://www.w3.org/1999/xlink" width="200" height="200"><path d="M621.6 761.4c0 50.5-43 89.8-96.6 89.8s-96.6-39.3-96.6-89.8h193.2m-32.2-523.9c0-33.7-27.9-59.9-64.4-59.9s-64.4 26.2-64.4 59.9v9.3c-88 28.1-161 117.8-161 222.7v82.3s0 117.8-32.2 119.7c-19.3 0-32.2 13.1-32.2 29.9 0 16.9 15 29.9 32.2 29.9h515.3c17.2 0 32.2-13.1 32.2-29.9 0-16.9-15-29.9-32.2-29.9-32.2 0-32.2-119.7-32.2-119.7v-82.3c0-104.7-68.7-192.7-161-222.7v-9.3" p-id="11128" fill="#707070"></path></svg>