<?xml version="1.0" standalone="no"?><!DOCTYPE svg PUBLIC "-//W3C//DTD SVG 1.1//EN" "http://www.w3.org/Graphics/SVG/1.1/DTD/svg11.dtd"><svg t="1731256528160" class="icon" viewBox="0 0 1024 1024" version="1.1" xmlns="http://www.w3.org/2000/svg" p-id="4809" xmlns:xlink="http://www.w3.org/1999/xlink" width="200" height="200"><path d="M201.1 913.6c-1.2 0-2.4 0-3.6-0.1-11.1-1-21.6-5.2-31.2-12.5-9.3-7.7-15.9-17.2-19.7-28.4-4-10.7-4.8-22.3-2.4-34.5l24.2-111.3c-24.7-31-43.8-64.3-56.8-98.8C95.3 586.2 87 542.7 87 498.6c0-104.8 44.9-202.7 126.5-275.9 38.8-35.1 83.9-62.7 134.2-81.9 52-19.9 107.2-30 164-30 112.3 0 218 39.8 297.7 112 39.6 35.7 70.8 77.3 92.5 123.7 22.6 48.1 34 99.3 34 152.2 0 52.8-11.4 104-34 152.1-21.8 46.5-52.9 88.1-92.5 123.6-38.7 35.2-83.8 62.8-134.1 82-51.9 19.9-106.9 29.9-163.6 29.9-33.8 0-67.9-3.8-101.6-11.4-28.8-6.2-55.6-14.9-79.7-25.7l-100.5 56.9c-9.5 4.9-19.2 7.5-28.8 7.5z m29.4-223.2c9.1 9 12.8 22 10 34.7l-22.8 105.5 94.9-53.9c5.2-2.8 10.9-4.3 16.6-4.3 5 0 9.7 1.1 14.1 3.2 26.5 12.9 53.9 22.4 81.4 28.3 27.4 6.2 56.6 9.4 87 9.4 95.5 0 185.3-33.4 252.7-94.1 31.9-28.6 57-62.1 74.5-99.4 18-38.5 27.2-79.3 27.2-121.3s-9.1-82.8-27.2-121.3c-17.5-37.3-42.6-70.9-74.5-99.7-67.7-60.7-157.4-94.1-252.7-94.1-95.5 0-185.4 33.4-253.1 94.1-31.8 28.9-56.9 62.4-74.5 99.7-18.2 38.6-27.5 79.5-27.5 121.3 0 34.7 6.5 68.9 19.2 101.8 12.9 33.1 31.2 63.4 54.7 90.1z m453.3-124.8c-13.2 0-26.2-5.7-36.5-16.1-9.7-10.2-15-23.6-15-37.8 0-14.1 5.3-27.6 14.9-38.1 10.1-10.2 23.1-15.8 36.6-15.8s26.5 5.6 36.5 15.7c9.7 10.6 15 24.1 15 38.2 0 14.3-5.3 27.7-15 37.8-10.3 10.4-23.2 16.1-36.5 16.1z m-172 0c-13.7 0-26.6-5.7-36.5-16.1-9.8-10.3-15.1-23.7-15.1-37.8 0-13.9 5.4-27.5 15.1-38.1 9.7-10.2 22.7-15.8 36.6-15.8 13.7 0 26.5 5.6 36.2 15.7 9.6 10.3 15 23.9 15 38.2 0 14.5-5.3 27.9-15 37.8-10 10.4-22.8 16.1-36.3 16.1z m-168.7 0c-13.4 0-26.6-5.9-36.3-16.1-9.6-9.9-14.9-23.3-14.9-37.8 0-14.3 5.3-27.8 14.9-38.1 9.7-10.2 22.6-15.8 36.4-15.8 13.6 0 26.5 5.6 36.4 15.7 9.8 10.5 15.1 24 15.1 38.2 0 14.3-5.4 27.8-15.1 37.8-10.2 10.4-23.2 16.1-36.5 16.1z" p-id="4810" fill="#515151"></path></svg>