<?xml version="1.0" standalone="no"?><!DOCTYPE svg PUBLIC "-//W3C//DTD SVG 1.1//EN" "http://www.w3.org/Graphics/SVG/1.1/DTD/svg11.dtd"><svg t="1730768669282" class="icon" viewBox="0 0 1024 1024" version="1.1" xmlns="http://www.w3.org/2000/svg" p-id="15273" xmlns:xlink="http://www.w3.org/1999/xlink" width="200" height="200"><path d="M614.4 140.8c-19.2 0-38.4 19.2-38.4 38.4v96c0 25.6 19.2 38.4 38.4 38.4s38.4-12.8 38.4-32V179.2c0-19.2-19.2-38.4-38.4-38.4z" p-id="15274" fill="#ffffff"></path><path d="M1024 96c0-44.8-38.4-83.2-83.2-83.2H89.6C44.8 12.8 6.4 51.2 6.4 96v819.2c0 44.8 38.4 83.2 83.2 83.2h851.2c44.8 0 83.2-38.4 83.2-83.2v-134.4c0-19.2-19.2-38.4-38.4-38.4s-38.4 19.2-38.4 38.4v140.8c0 6.4 0 6.4-6.4 6.4H89.6c-6.4 0-6.4 0-6.4-6.4V96c0-6.4 0-6.4 6.4-6.4h147.2V358.4c0 44.8 38.4 76.8 76.8 76.8h403.2c44.8 0 76.8-38.4 76.8-76.8V96v-6.4h147.2c6.4 0 6.4 0 6.4 6.4v499.2c0 19.2 19.2 38.4 38.4 38.4s38.4-19.2 38.4-38.4V96z m-307.2 262.4H307.2V96h409.6v262.4z" p-id="15275" fill="#ffffff"></path></svg>